<svg xmlns="http://www.w3.org/2000/svg" width="190.825" height="35.207" viewBox="0 0 190.825 35.207">
  <g id="Layer_1" transform="translate(-0.001)">
    <path id="Path_17" data-name="Path 17" d="M436.01,3.941h-.034c0-.083.011-.163.011-.25a3.857,3.857,0,0,0-7.707,0c0,2.038,1.008,5.009,4.842,3.562a12.009,12.009,0,0,1-2.99,5.217l1.159,1.159a12,12,0,0,0,4.725-9.552c0-.045,0-.091,0-.136h0Z" transform="translate(-266.003)" fill="#fffef7"/>
    <path id="Path_18" data-name="Path 18" d="M270.947,31.019a4.6,4.6,0,0,1-9.192,0V13.268a4.6,4.6,0,0,1,9.192,0Zm-4.6-25.049c-6.737,0-12.2,7.256-12.2,16.2s5.464,16.2,12.2,16.2,12.2-7.252,12.2-16.2-5.46-16.2-12.2-16.2Z" transform="translate(-157.852 -3.708)" fill="#fffef7"/>
    <path id="Path_19" data-name="Path 19" d="M327.5,38.462H318.96V37.6l.235-.125a4.261,4.261,0,0,0,2.255-3.759V11.867a4.259,4.259,0,0,0-2.489-3.872v-.75h9.113l11.545,17V11.548a4.024,4.024,0,0,0-2.133-3.554V7.21h7.8v.784l-.095.045a4.026,4.026,0,0,0-2.3,3.637V38.462h-1.565l-16.3-24.06V33.729a4.262,4.262,0,0,0,2.243,3.751l.224.121v.86Z" transform="translate(-198.105 -4.478)" fill="#fffef7"/>
    <path id="Path_20" data-name="Path 20" d="M83.451,3.23a5.73,5.73,0,0,1-4.21,1.447h-16v.974a2.323,2.323,0,0,1,2.323,2.323V32.523a2.323,2.323,0,0,1-2.323,2.323v1.015H80.147a6.43,6.43,0,0,1,4.3,1.353l3.08-10.439H86.523S83.144,32.8,78.161,32.8h-6.07V21.008h6.331c1.679,0,2.451.989,3.607,3.039h.853V14.184H82S80.075,17.6,78.4,17.6H72.118V7.568H75.8a9.624,9.624,0,0,1,8.7,5.513h.932L83.447,3.23h0Z" transform="translate(-39.278 -2.006)" fill="#fffef7"/>
    <path id="Path_21" data-name="Path 21" d="M403.734,8.064V7.28H392.95v.784a1.971,1.971,0,0,1,1.97,1.97V35.557a1.971,1.971,0,0,1-1.97,1.97v.784h10.784v-.784a1.971,1.971,0,0,1-1.97-1.97V10.038a1.971,1.971,0,0,1,1.97-1.97Z" transform="translate(-244.06 -4.522)" fill="#fffef7"/>
    <path id="Path_22" data-name="Path 22" d="M152.342,24.53l-.917-.22s-1.845,7.786-8.055,7.786-7.942-10.954-5.858-18.21,7.358-7.779,9.116,1.47l.743.091,4.407-8.021S146.014,4.24,140.164,6.27c-9.37,3.251-10.874,14.114-8.916,23.143,2.626,12.1,20.351,14.167,21.093-4.888h0Z" transform="translate(-81.051 -3.474)" fill="#fffef7"/>
    <path id="Path_23" data-name="Path 23" d="M21.848,24.53l-.917-.22S19.086,32.1,12.876,32.1,4.934,21.142,7.018,13.886s7.358-7.779,9.116,1.47l.743.091,4.407-8.021S15.521,4.24,9.67,6.27C.3,9.525-1.208,20.385.755,29.418,3.381,41.52,21.106,43.585,21.848,24.53Z" transform="translate(0 -3.474)" fill="#fffef7"/>
    <path id="Path_24" data-name="Path 24" d="M213.672,24.53l-.917-.22S210.91,32.1,204.7,32.1s-7.942-10.954-5.858-18.21,7.358-7.779,9.116,1.47l.743.091,4.407-8.021S207.344,4.24,201.494,6.27c-9.37,3.251-10.874,14.114-8.916,23.143,2.626,12.1,20.351,14.167,21.093-4.888h0Z" transform="translate(-119.143 -3.474)" fill="#fffef7"/>
    <path id="Path_25" data-name="Path 25" d="M465.958,15.1l-.777-.034S463.4,10.25,459.9,9.223a5.158,5.158,0,0,0-3.421.379,3.255,3.255,0,0,0-1.8,3.224,4.464,4.464,0,0,0,1.5,3.069,10.775,10.775,0,0,0,4.244,2.175,17.366,17.366,0,0,1,3.41,1.364,11.452,11.452,0,0,1,4.8,4.293,9.774,9.774,0,0,1,.136,8.419,11.023,11.023,0,0,1-10,5.752s-6.3-.068-9.863-3.285l2.743-6.434.667.049a9.763,9.763,0,0,0,6.616,6.506,5.946,5.946,0,0,0,3.615-.095,3.531,3.531,0,0,0,2.493-2.849,4.2,4.2,0,0,0-1.58-3.872,21.846,21.846,0,0,0-5.718-3.027s-7.464-2.535-7.464-9.454a9.667,9.667,0,0,1,10.208-9.4,15.169,15.169,0,0,1,7.866,2.417L465.951,15.1h0Z" transform="translate(-278.811 -3.744)" fill="#fffef7"/>
  </g>
</svg>
