<svg width="21" height="21" viewBox="0 0 21 21" fill="none" xmlns="http://www.w3.org/2000/svg">
<path d="M20.9681 10.484C20.9681 16.2743 16.2743 20.9681 10.4841 20.9681C4.69376 20.9681 0 16.2743 0 10.484C0 4.69376 4.69376 0 10.4841 0C16.2743 0 20.9681 4.69376 20.9681 10.484Z" fill="#414042"/>
<path d="M13.3287 4.98474H7.63969C6.17382 4.98474 4.98493 6.17361 4.98493 7.63948V13.3285C4.98493 14.7944 6.17382 15.9832 7.63969 15.9832H13.3287C14.7946 15.9832 15.9835 14.7944 15.9835 13.3285V7.63948C15.9835 6.17361 14.7946 4.98474 13.3287 4.98474ZM15.0352 13.1385C15.0352 14.1854 14.1856 15.035 13.1388 15.035H7.82913C6.78223 15.035 5.93267 14.1854 5.93267 13.1385V7.829C5.93267 6.78203 6.78223 5.93246 7.82913 5.93246H13.1388C14.1856 5.93246 15.0352 6.78203 15.0352 7.829V13.1385Z" fill="white"/>
<path d="M10.4892 7.63948C8.91932 7.63948 7.645 8.91388 7.645 10.4837C7.645 12.0536 8.91932 13.3279 10.4892 13.3279C12.0591 13.3279 13.3334 12.0536 13.3334 10.4837C13.3334 8.91388 12.0591 7.63948 10.4892 7.63948ZM10.4892 12.3802C9.44436 12.3802 8.59266 11.5285 8.59266 10.4837C8.59266 9.43892 9.44436 8.58723 10.4892 8.58723C11.5341 8.58723 12.3857 9.43892 12.3857 10.4837C12.3857 11.5285 11.5341 12.3802 10.4892 12.3802Z" fill="white"/>
<path d="M13.5236 8.01892C13.8377 8.01892 14.0924 7.76418 14.0924 7.45004C14.0924 7.13589 13.8377 6.88121 13.5236 6.88121C13.2094 6.88121 12.9547 7.13589 12.9547 7.45004C12.9547 7.76418 13.2094 8.01892 13.5236 8.01892Z" fill="white"/>
</svg>
