<svg width="21" height="21" viewBox="0 0 21 21" fill="none" xmlns="http://www.w3.org/2000/svg">
<path d="M20.9681 10.484C20.9681 16.2743 16.2744 20.9681 10.4841 20.9681C4.69376 20.9681 0 16.2743 0 10.484C0 4.69376 4.69376 0 10.4841 0C16.2744 0 20.9681 4.69376 20.9681 10.484Z" fill="#414042"/>
<path d="M6.77078 7.68146C7.51654 7.68146 8.12109 7.07692 8.12109 6.33115C8.12109 5.58537 7.51654 4.9808 6.77078 4.9808C6.025 4.9808 5.42043 5.58537 5.42043 6.33115C5.42043 7.07692 6.025 7.68146 6.77078 7.68146Z" fill="white"/>
<path d="M7.79549 8.58141H5.74645C5.69079 8.58141 5.64566 8.62653 5.64566 8.68222V15.2318C5.64566 15.2875 5.69079 15.3326 5.74645 15.3326H7.79549C7.8511 15.3326 7.89622 15.2875 7.89622 15.2318V8.68222C7.89622 8.62653 7.8511 8.58141 7.79549 8.58141Z" fill="white"/>
<path d="M15.5478 11.0575V14.8832C15.5478 15.1306 15.3452 15.3333 15.0977 15.3333H13.7474C13.4998 15.3333 13.2972 15.1306 13.2972 14.8832V11.7323C13.2972 11.1112 12.7933 10.6073 12.1722 10.6073C11.5511 10.6073 11.0472 11.1112 11.0472 11.7323V14.8832C11.0472 15.1306 10.8446 15.3333 10.5971 15.3333H9.24674C8.99919 15.3333 8.7966 15.1306 8.7966 14.8832V9.03162C8.7966 8.78415 8.99919 8.58156 9.24674 8.58156H10.5971C10.8446 8.58156 11.0472 8.78415 11.0472 9.03162V9.31977C11.4973 8.73669 12.2424 8.35677 13.0724 8.35677C14.3146 8.35677 15.5478 9.25697 15.5478 11.0575Z" fill="white"/>
</svg>
