<?xml version="1.0" encoding="UTF-8"?>
<svg id="Layer_1" data-name="Layer 1" xmlns="http://www.w3.org/2000/svg" viewBox="0 0 298.92 47.14">
  <defs>
    <style>
      .cls-1 {
        fill: #414042;
      }
    </style>
  </defs>
  <path class="cls-1" d="M0,45.86V1.35h10.82v36.03h34.24v8.48H0Z"/>
  <path class="cls-1" d="M108.93,23.54c0,6.6-2.56,12.03-7.69,16.29-2.82,2.34-6.15,4.14-9.99,5.41-3.83,1.27-8.04,1.9-12.63,1.9s-8.75-.63-12.6-1.9c-3.86-1.27-7.17-3.07-9.96-5.41-2.54-2.09-4.44-4.51-5.71-7.25-1.27-2.75-1.91-5.76-1.91-9.04s.65-6.21,1.93-8.94c1.29-2.73,3.2-5.14,5.75-7.22,2.83-2.34,6.18-4.15,10.05-5.44,3.88-1.3,8.04-1.94,12.51-1.94s8.64.65,12.51,1.94c3.87,1.28,7.22,3.1,10.04,5.44,5.13,4.26,7.69,9.65,7.69,16.16ZM97.8,23.54c0-2.21-.45-4.23-1.35-6.06-.9-1.82-2.18-3.39-3.84-4.7-1.66-1.32-3.67-2.34-6.03-3.08-2.36-.74-5-1.11-7.9-1.11s-5.54.37-7.9,1.11c-2.35.74-4.36,1.76-6.02,3.08-1.66,1.31-2.94,2.88-3.84,4.7-.91,1.83-1.36,3.85-1.36,6.06s.44,4.31,1.32,6.15c.88,1.83,2.15,3.42,3.81,4.73,1.65,1.32,3.66,2.33,5.99,3.04,2.34.71,4.98,1.07,7.93,1.07s5.6-.36,7.96-1.07c2.36-.72,4.36-1.73,6.03-3.04,1.66-1.32,2.94-2.9,3.84-4.73.9-1.85,1.35-3.89,1.35-6.15Z"/>
  <path class="cls-1" d="M156.56,2.98c3.32,1.08,6.15,2.62,8.49,4.61,2.33,1.99,4.13,4.39,5.38,7.19,1.25,2.81,1.88,5.91,1.88,9.31,0,6.56-2.65,11.93-7.93,16.11-2.25,1.8-4.89,3.19-7.9,4.18-3.02.98-6.23,1.47-9.62,1.47h-31.35V1.35h29.87c4.14,0,7.88.54,11.19,1.63ZM152.83,35.83c2.16-1.03,3.93-2.43,5.33-4.21,1.84-2.35,2.77-4.91,2.77-7.72,0-2.02-.37-3.89-1.11-5.62-.74-1.73-1.76-3.22-3.07-4.48-1.31-1.26-2.88-2.23-4.71-2.93-1.82-.7-3.81-1.06-5.99-1.06h-19.73v27.55h19.8c2.33,0,4.58-.52,6.72-1.54Z"/>
  <path class="cls-1" d="M221.86,45.86v-19.12h-32.15v19.12h-10.82V1.41h10.82v16.23h32.15V1.41h10.82v44.45h-10.82Z"/>
  <path class="cls-1" d="M287.99,45.86l-5.11-9.6h-28.51l-5.11,9.6h-10.94L261.98,1.35h13.34l23.61,44.51h-10.94ZM268.56,9.53l-9.78,18.26h19.54l-9.76-18.26Z"/>
</svg>