<svg width="21" height="21" viewBox="0 0 21 21" fill="none" xmlns="http://www.w3.org/2000/svg">
<path d="M20.9681 10.484C20.9681 16.2743 16.2743 20.9681 10.4841 20.9681C4.69376 20.9681 0 16.2743 0 10.484C0 4.69376 4.69376 0 10.4841 0C16.2743 0 20.9681 4.69376 20.9681 10.484Z" fill="#414042"/>
<path d="M15.0025 6.04175H5.96645C5.07361 6.04175 4.34962 6.76573 4.34962 7.65805V13.3096C4.34962 14.2024 5.07361 14.9259 5.96645 14.9259H15.0025C15.8948 14.9259 16.6188 14.2024 16.6188 13.3096V7.65805C16.6188 6.76573 15.8948 6.04175 15.0025 6.04175ZM11.9356 10.8738L9.42275 12.1296C9.13258 12.2747 8.79164 12.0642 8.79164 11.7403V9.22842C8.79164 8.90444 9.13307 8.69393 9.42275 8.83849L11.9356 10.0944C12.2565 10.2548 12.2565 10.7133 11.9356 10.8738Z" fill="white"/>
</svg>
